{"accessors":[{"bufferView":0,"componentType":5125,"count":150000,"name":"index","type":"SCALAR"},{"bufferView":1,"componentType":5126,"count":29106,"max":[0.07507000118494034,0.15942999720573425,0.0363599993288517],"min":[-0.07511000335216522,0.0,-0.030060000717639923],"name":"position","type":"VEC3"},{"bufferView":1,"byteOffset":12,"componentType":5126,"count":29106,"name":"texture_cooridinate","type":"VEC2"}],"asset":{"version":"2.0"},"bufferViews":[{"buffer":0,"byteLength":600000,"name":"indices"},{"buffer":0,"byteLength":582120,"byteOffset":600000,"byteStride":20,"name":"vertices"},{"buffer":1,"byteLength":1813868}],"buffers":[{"byteLength":1182120,"name":"geometry","uri":"data:application/octet-stream;base64,"},{"byteLength":1813868,"name":"diffuse_texture","uri":"data:application/octet-stream;base64,"}],"extensionsUsed":["KHR_materials_unlit"],"images":[{"bufferView":2,"mimeType":"image/jpeg"}],"materials":[{"extensions":{"KHR_materials_unlit":{}},"name":"material_0","pbrMetallicRoughness":{"baseColorTexture":{"index":0}}}],"meshes":[{"primitives":[{"attributes":{"POSITION":1,"TEXCOORD_0":2},"indices":0,"material":0,"mode":4}]}],"nodes":[{"mesh":0}],"samplers":[{"wrapR":10497,"wrapS":10497,"wrapT":10497}],"scene":0,"scenes":[{"nodes":[0]}],"textures":[{"sampler":0,"source":0}]}
